<?xml version="1.0" encoding="UTF-8" standalone="no"?>
<!-- Created with Inkscape (http://www.inkscape.org/) -->

<svg
   width="111mm"
   height="40mm"
   viewBox="0 0 111 40"
   version="1.1"
   id="svg1"
   xml:space="preserve"
   inkscape:version="1.3.2 (091e20e, 2023-11-25, custom)"
   sodipodi:docname="aulepi.svg"
   inkscape:export-filename="..\..\..\Desktop\aulepi.svg"
   inkscape:export-xdpi="96"
   inkscape:export-ydpi="96"
   xmlns:inkscape="http://www.inkscape.org/namespaces/inkscape"
   xmlns:sodipodi="http://sodipodi.sourceforge.net/DTD/sodipodi-0.dtd"
   xmlns="http://www.w3.org/2000/svg"
   xmlns:svg="http://www.w3.org/2000/svg"><sodipodi:namedview
     id="namedview1"
     pagecolor="#505050"
     bordercolor="#ffffff"
     borderopacity="1"
     inkscape:showpageshadow="0"
     inkscape:pageopacity="0"
     inkscape:pagecheckerboard="1"
     inkscape:deskcolor="#505050"
     inkscape:document-units="mm"
     inkscape:zoom="4.3366723"
     inkscape:cx="117.83228"
     inkscape:cy="94.081354"
     inkscape:window-width="2560"
     inkscape:window-height="1494"
     inkscape:window-x="-11"
     inkscape:window-y="-11"
     inkscape:window-maximized="1"
     inkscape:current-layer="layer1" /><defs
     id="defs1" /><g
     inkscape:label="Livello 1"
     inkscape:groupmode="layer"
     id="layer1"><text
       xml:space="preserve"
       style="font-style:normal;font-variant:normal;font-weight:normal;font-stretch:normal;font-size:12.3472px;font-family:'Cascadia Mono';-inkscape-font-specification:'Cascadia Mono, Normal';font-variant-ligatures:normal;font-variant-caps:normal;font-variant-numeric:normal;font-variant-east-asian:normal;fill:#ffffff;fill-opacity:1;stroke-width:0.264583"
       x="60.120735"
       y="21.839846"
       id="text2"><tspan
         sodipodi:role="line"
         id="tspan2"
         style="font-style:normal;font-variant:normal;font-weight:normal;font-stretch:normal;font-size:12.3472px;font-family:'Cascadia Mono';-inkscape-font-specification:'Cascadia Mono, Normal';font-variant-ligatures:normal;font-variant-caps:normal;font-variant-numeric:normal;font-variant-east-asian:normal;stroke-width:0.264583"
         x="60.120735"
         y="21.839846">AulePi</tspan></text><text
       xml:space="preserve"
       style="font-style:normal;font-variant:normal;font-weight:normal;font-stretch:normal;font-size:5.64444px;font-family:'Cascadia Mono';-inkscape-font-specification:'Cascadia Mono, Normal';font-variant-ligatures:normal;font-variant-caps:normal;font-variant-numeric:normal;font-variant-east-asian:normal;fill:#ffffff;fill-opacity:1;stroke-width:0.264583"
       x="51.497608"
       y="30.432322"
       id="text3"><tspan
         sodipodi:role="line"
         id="tspan3"
         style="font-style:normal;font-variant:normal;font-weight:normal;font-stretch:normal;font-size:5.64444px;font-family:'Cascadia Mono';-inkscape-font-specification:'Cascadia Mono, Normal';font-variant-ligatures:normal;font-variant-caps:normal;font-variant-numeric:normal;font-variant-east-asian:normal;stroke-width:0.264583"
         x="51.497608"
         y="30.432322">university of Pisa</tspan></text><g
       id="pisa"
       transform="matrix(0.59991484,0,0,0.50847131,0.09181358,3.3312823)"><circle
         cx="24.5"
         cy="25.5"
         r="22.5"
         style="fill:#edebdc"
         id="circle1" /><path
         d="m 19.874,54.377 a 2.5,2.5 0 1 1 4.859,1.178 L 23.413,61 H 26.5 l 1.149,-4.737 a 2.5,2.5 0 1 1 4.859,1.178 L 31.645,61 h 3.087 l 0.691,-2.852 a 2.500482,2.500482 0 0 1 4.86,1.179 L 49.122,22.884 28.714,17.933 18.268,61 v 0 z"
         style="fill:#000000;stroke:#ffffff;stroke-width:2px;stroke-linecap:round;stroke-linejoin:round"
         id="path1" /><rect
         x="32.352001"
         y="12.595"
         width="15"
         height="7.9250002"
         transform="rotate(13.634,39.850805,16.558098)"
         style="fill:#000000;stroke:#ffffff;stroke-width:2px;stroke-linecap:round;stroke-linejoin:round"
         id="rect1" /><line
         x1="30.976999"
         y1="10.328"
         x2="51.007999"
         y2="15.109"
         style="fill:none;stroke:#ffffff;stroke-width:2px;stroke-linecap:round;stroke-linejoin:round"
         id="line1" /><line
         x1="41.290001"
         y1="12.752"
         x2="43.174999"
         y2="4.9770002"
         style="fill:#ffffff;stroke:#ffffff;stroke-width:2px;stroke-linecap:round;stroke-linejoin:round"
         id="line2" /><rect
         x="42.737"
         y="5.6420002"
         width="6"
         height="3"
         transform="rotate(13.634,45.737594,7.140599)"
         style="fill:#000000;stroke:#ffffff;stroke-width:2px;stroke-linecap:round;stroke-linejoin:round"
         id="rect2" /><path
         d="m 33.676,14.065 v 0 a 1.5,1.5 0 0 1 1.5,1.5 v 3.5 h -3 v -3.5 a 1.5,1.5 0 0 1 1.5,-1.5 z"
         transform="rotate(13.634,33.679165,16.566196)"
         style="fill:none;stroke:#ffffff;stroke-width:2px;stroke-linecap:round;stroke-linejoin:round"
         id="path2" /><path
         d="m 39.507,15.479 v 0 a 1.5,1.5 0 0 1 1.5,1.5 v 3.5 h -3 v -3.5 a 1.5,1.5 0 0 1 1.5,-1.5 z"
         transform="rotate(13.634,39.507214,17.977934)"
         style="fill:none;stroke:#ffffff;stroke-width:2px;stroke-linecap:round;stroke-linejoin:round"
         id="path3" /><path
         d="m 45.338,16.893 v 0 a 1.5,1.5 0 0 1 1.5,1.5 v 3.5 h -3 v -3.5 a 1.5,1.5 0 0 1 1.5,-1.5 z"
         transform="rotate(13.634,45.339946,19.393354)"
         style="fill:none;stroke:#ffffff;stroke-width:2px;stroke-linecap:round;stroke-linejoin:round"
         id="path4" /><rect
         x="34.943001"
         y="20.113001"
         width="3"
         height="21"
         transform="rotate(-76.366,36.442819,30.6132)"
         style="fill:#000000;stroke:#ffffff;stroke-width:2px;stroke-linecap:round;stroke-linejoin:round"
         id="rect4" /><rect
         x="32.349998"
         y="30.802999"
         width="3"
         height="21"
         transform="rotate(-76.366,33.849947,41.302734)"
         style="fill:#ffffff;stroke:#ffffff;stroke-width:2px;stroke-linecap:round;stroke-linejoin:round"
         id="rect5" /><rect
         x="29.521"
         y="42.465"
         width="3"
         height="21"
         transform="rotate(-76.366,31.021362,52.964514)"
         style="fill:#000000;stroke:#ffffff;stroke-width:2px;stroke-linecap:round;stroke-linejoin:round"
         id="rect6" /><line
         x1="30.715"
         y1="26.650999"
         x2="32.601002"
         y2="18.875999"
         style="fill:none;stroke:#ffffff;stroke-width:2px;stroke-linecap:round;stroke-linejoin:round"
         id="line6" /><line
         x1="34.603001"
         y1="27.594"
         x2="36.487999"
         y2="19.819"
         style="fill:none;stroke:#ffffff;stroke-width:2px;stroke-linecap:round;stroke-linejoin:round"
         id="line7" /><line
         x1="39.462002"
         y1="28.771999"
         x2="41.348"
         y2="20.997999"
         style="fill:none;stroke:#ffffff;stroke-width:2px;stroke-linecap:round;stroke-linejoin:round"
         id="line8" /><line
         x1="43.348999"
         y1="29.715"
         x2="45.235001"
         y2="21.941"
         style="fill:none;stroke:#ffffff;stroke-width:2px;stroke-linecap:round;stroke-linejoin:round"
         id="line9" /><line
         x1="27.886999"
         y1="38.313"
         x2="29.771999"
         y2="30.538"
         style="fill:#ffffff;stroke:#ffffff;stroke-width:2px;stroke-linecap:round;stroke-linejoin:round"
         id="line10" /><line
         x1="31.774"
         y1="39.256001"
         x2="33.66"
         y2="31.481001"
         style="fill:none;stroke:#ffffff;stroke-width:2px;stroke-linecap:round;stroke-linejoin:round"
         id="line11" /><line
         x1="36.632999"
         y1="40.433998"
         x2="38.519001"
         y2="32.66"
         style="fill:none;stroke:#ffffff;stroke-width:2px;stroke-linecap:round;stroke-linejoin:round"
         id="line12" /><line
         x1="40.52"
         y1="41.376999"
         x2="42.405998"
         y2="33.603001"
         style="fill:none;stroke:#ffffff;stroke-width:2px;stroke-linecap:round;stroke-linejoin:round"
         id="line13" /><line
         x1="25.294001"
         y1="49.002998"
         x2="27.18"
         y2="41.228001"
         style="fill:none;stroke:#ffffff;stroke-width:2px;stroke-linecap:round;stroke-linejoin:round"
         id="line14" /><line
         x1="29.181"
         y1="49.945999"
         x2="31.066999"
         y2="42.171001"
         style="fill:none;stroke:#ffffff;stroke-width:2px;stroke-linecap:round;stroke-linejoin:round"
         id="line15" /><line
         x1="34.040001"
         y1="51.124001"
         x2="35.925999"
         y2="43.349998"
         style="fill:none;stroke:#ffffff;stroke-width:2px;stroke-linecap:round;stroke-linejoin:round"
         id="line16" /><line
         x1="37.926998"
         y1="52.067001"
         x2="39.813"
         y2="44.292999"
         style="fill:none;stroke:#ffffff;stroke-width:2px;stroke-linecap:round;stroke-linejoin:round"
         id="line17" /><path
         d="m 22.893,52.536 a 2.5,2.5 0 0 0 -3.019,1.841 L 18.268,61 h 5.145 l 1.32,-5.445 a 2.5,2.5 0 0 0 -1.84,-3.019 z"
         style="fill:#000000;stroke:#ffffff;stroke-width:2px;stroke-linecap:round;stroke-linejoin:round"
         id="path17" /><path
         d="m 30.668,54.422 a 2.5,2.5 0 0 0 -3.019,1.841 L 26.5,61 h 5.145 l 0.863,-3.559 a 2.5,2.5 0 0 0 -1.84,-3.019 z"
         style="fill:#000000;stroke:#ffffff;stroke-width:2px;stroke-linecap:round;stroke-linejoin:round"
         id="path18" /><polygon
         points="40.283,59.327 39.877,61 40.282,59.327 "
         style="fill:#edebdc;stroke:#4c241d;stroke-width:2px;stroke-linecap:round;stroke-linejoin:round"
         id="polygon18" /><path
         d="m 38.442,56.308 a 2.5,2.5 0 0 0 -3.019,1.84 L 34.732,61 h 5.145 l 0.406,-1.673 a 2.5,2.5 0 0 0 -1.841,-3.019 z"
         style="fill:#000000;stroke:#ffffff;stroke-width:2px;stroke-linecap:round;stroke-linejoin:round"
         id="path19" /><line
         x1="12"
         y1="61"
         x2="46"
         y2="61"
         style="fill:#e7d1c4;stroke:#ffffff;stroke-width:2px;stroke-linecap:round;stroke-linejoin:round"
         id="line19" /></g></g></svg>
